<svg width="40" height="40" viewBox="0 0 40 40" fill="none" xmlns="http://www.w3.org/2000/svg">
<path d="M20 37.5L12.28 33.3838C10.0792 32.2129 8.23872 30.4648 6.95616 28.3272C5.6736 26.1895 4.99736 23.7429 5.00001 21.25V5C5.00067 4.33716 5.26427 3.70166 5.73297 3.23296C6.20167 2.76427 6.83717 2.50066 7.50001 2.5H32.5C33.1628 2.50066 33.7983 2.76427 34.267 3.23296C34.7357 3.70166 34.9993 4.33716 35 5V21.25C35.0027 23.7429 34.3264 26.1895 33.0439 28.3272C31.7613 30.4648 29.9208 32.2129 27.72 33.3838L20 37.5ZM7.50001 5V21.25C7.49793 23.2898 8.05139 25.2916 9.10096 27.0406C10.1505 28.7896 11.6566 30.2197 13.4575 31.1775L20 34.6662L26.5425 31.1788C28.3436 30.2209 29.8498 28.7905 30.8994 27.0413C31.949 25.292 32.5023 23.29 32.5 21.25V5H7.50001Z" fill="#14F195"/>
<path d="M20 31.5963V7.5H30V21.0063C29.9999 22.5906 29.5697 24.1453 28.7551 25.5043C27.9405 26.8633 26.7723 27.9756 25.375 28.7225L20 31.5963Z" fill="#14F195"/>
</svg>
