<svg width="356" height="380" viewBox="0 0 356 380" fill="none" xmlns="http://www.w3.org/2000/svg">
<g clip-path="url(#clip0_2016_23)">
<path d="M66.8934 60.5049L72.6562 58.2844L74.17 61.5734L74.8694 69.4336L73.5801 70.3666L66.8934 60.5049Z" fill="black"/>
<path d="M94.8933 75.9854L88.3109 79.7851L95.2274 89.97L96.8403 88.7973L97.8426 80.7129L94.8933 75.9854Z" fill="black"/>
<g opacity="0.05">
<path opacity="0.05" d="M108.7 28.5376C107.374 30.5391 106.137 32.7075 105.756 34.2295L106.8 33.5102C106.67 32.3791 107.531 30.5026 108.7 28.5376Z" fill="black"/>
<path opacity="0.05" d="M114.635 55.7772L115.361 40.5415C99.1792 50.7942 75.5016 60.1503 75.5016 60.1503L74.3584 61.959C74.3584 61.959 98.0621 52.6028 114.218 42.3502L113.539 56.6997L114.635 55.7772Z" fill="black"/>
</g>
<g opacity="0.5">
<path opacity="0.5" d="M72.2755 71.1066L73.6013 70.1423L72.8862 62.0476L71.3255 58.6648L65.3904 60.953L72.2755 71.1066Z" fill="url(#paint0_linear_2016_23)"/>
<path opacity="0.5" d="M162.644 0.979885C159.037 -0.75061 156.338 0.0625143 154.448 1.50112C152.761 2.76957 151.444 4.46456 150.632 6.41114L150.11 7.79241L147.668 9.5646L146.874 7.87059C146.874 7.87059 138.225 -7.47452 112.71 22.4912L112.595 22.3974C112.595 22.3974 110.423 25.0504 108.445 28.0267L108.163 28.4541L108.038 28.647L107.86 28.9232L107.73 29.1317L107.531 29.4601L107.359 29.7415L107.176 30.0491L107.046 30.2732L106.91 30.5078L106.78 30.7423L106.644 30.9925L106.446 31.3678L106.336 31.5763L106.216 31.8213L106.127 32.0089L106.012 32.2539L105.939 32.4155C105.877 32.5614 105.818 32.7039 105.762 32.8429L105.699 33.0045L105.616 33.2338L105.564 33.3902C105.525 33.5083 105.49 33.6247 105.459 33.7394C105.459 33.802 105.423 33.8593 105.412 33.9166C105.31 34.2826 105.271 34.6634 105.297 35.0425L71.3259 58.6492L73.0694 62.4333C73.0694 62.4333 97.483 52.8009 114.124 42.2355L113.425 57.0125L113.383 57.9246C113.383 57.9246 98.1825 70.4916 94.2258 76.8923L87.4399 80.8068L94.5651 91.294L96.225 90.09L97.269 81.7502L125.159 59.4883C125.159 59.4883 130.447 49.8403 130.541 41.7664L131.684 46.1708C131.684 46.1708 134.117 52.9938 135.834 53.2648C137.551 53.5359 137.557 47.9743 136.356 46.322C135.155 44.6697 135.719 33.6299 135.719 33.6299L136.032 31.3834L140.396 28.2143L140.558 28.0632L140.788 29.4497L141.665 29.5278V29.5904L141.706 29.9917L142.27 40.5154L145.36 52.4204C145.36 52.4204 147.793 59.2434 149.51 59.5144C151.228 59.7854 151.233 54.2239 150.032 52.5716C148.832 50.9193 149.401 39.8848 149.401 39.8848L150.674 30.6954V30.5182L150.7 30.3149L153.211 30.5338C153.211 30.5338 155.821 21.5738 151.452 17.6698L150.659 15.9758L152.287 14.7978L152.616 14.5632C153.996 15.9115 155.85 16.6665 157.781 16.6665C159.712 16.6665 161.566 15.9115 162.946 14.5632C164.167 14.6766 165.389 14.3513 166.391 13.6459L167.023 13.1924C167.703 12.7615 168.316 12.2349 168.845 11.6287C169.289 10.8051 168.229 3.65381 162.644 0.979885Z" fill="url(#paint1_linear_2016_23)"/>
</g>
<path d="M112.751 23.075C112.751 23.075 105.323 32.1444 105.673 35.3239L72.662 58.2843L74.3533 61.959C74.3533 61.959 98.0571 52.6028 114.213 42.3502L113.492 57.6067C113.492 57.6067 98.7357 69.7879 94.899 76.0062L97.8483 80.7338L124.929 59.1182C124.929 59.1182 132.963 44.4612 129.105 36.4654L112.751 23.075Z" fill="#535461"/>
<path d="M350.67 245.251C326.894 340.47 230.304 398.426 134.925 374.678C39.5463 350.931 -18.4577 254.477 5.33482 159.247C29.1273 64.018 125.691 6.05682 221.038 29.799C316.386 53.5412 374.447 150.006 350.67 245.251Z" fill="#265BDA"/>
<path d="M93.7663 215.125C95.4982 214.422 97.4386 214.435 99.1613 215.163L258.093 282.267C260.988 283.489 260.961 287.603 258.05 288.786L213.414 306.916C211.682 307.62 209.742 307.606 208.019 306.879L49.0871 239.775C46.1921 238.552 46.219 234.438 49.1298 233.256L93.7663 215.125Z" fill="white"/>
<path d="M143.222 97.8151C144.954 97.1114 146.894 97.1249 148.617 97.8522L307.549 164.956C310.444 166.179 310.417 170.293 307.506 171.475L262.87 189.606C261.138 190.309 259.197 190.296 257.475 189.568L98.5426 122.464C95.6475 121.242 95.6744 117.128 98.5851 115.945L143.222 97.8151Z" fill="white"/>
<path d="M253.069 212.85C252.363 211.118 251 209.736 249.277 209.009L90.345 141.905C87.45 140.682 84.5243 143.573 85.7092 146.484L103.882 191.134C104.587 192.867 105.951 194.248 107.674 194.976L266.606 262.08C269.501 263.302 272.426 260.412 271.241 257.5L253.069 212.85Z" fill="white"/>
<path d="M140.672 24.6179L141.528 40.6719L144.524 52.2277C144.524 52.2277 146.884 58.8525 148.554 59.1132C150.225 59.3738 150.23 53.9738 149.076 52.3684C147.923 50.763 148.476 40.0516 148.476 40.0516L150.334 26.4214L140.672 24.6179Z" fill="#FDA57D"/>
<path d="M139.675 27.3075L140.109 29.9137L152.187 30.9561C152.187 30.9561 154.714 22.2567 150.475 18.4465L139.675 27.3075Z" fill="#F55F44"/>
<path d="M150.476 18.483L146.013 8.97044C146.013 8.97044 137.582 -5.98375 112.683 23.3513L129.105 36.4447L139.733 28.7304L150.476 18.483Z" fill="#F55F44"/>
<path d="M153.992 5.39038L157.964 10.8463L149.295 17.1377C148.69 17.5766 147.936 17.7576 147.197 17.6409C146.459 17.5243 145.797 17.1195 145.357 16.5157L144.704 15.6176C144.264 15.0137 144.083 14.2603 144.2 13.523C144.317 12.7856 144.722 12.1248 145.327 11.686L153.996 5.3946L153.992 5.39038Z" fill="#FDA57D"/>
<path opacity="0.05" d="M149.384 8.73583C149.045 9.95908 149.042 11.2512 149.376 12.476C149.711 13.7007 150.37 14.8126 151.284 15.6943L155.382 12.7181L151.41 7.26074L149.384 8.73583Z" fill="black"/>
<path d="M160.818 16.1243C164.02 13.8005 164.733 9.33059 162.411 6.14039C160.089 2.95018 155.611 2.24778 152.409 4.57152C149.207 6.89527 148.494 11.3652 150.816 14.5554C153.138 17.7456 157.616 18.448 160.818 16.1243Z" fill="#FDA57D"/>
<path opacity="0.05" d="M153.299 6.13479L149.16 8.89733L149.682 7.55255C149.682 7.55255 153.085 -1.30842 161.02 2.51222C166.443 5.11839 167.471 12.0508 167.059 12.8431C166.447 13.508 165.744 14.0835 164.971 14.5527C163.953 15.2732 162.701 15.5863 161.463 15.4299C160.225 15.2736 159.091 14.6592 158.284 13.7083C156.896 12.056 154.474 8.63671 154.917 6.67688C154.51 5.93673 153.978 5.63441 153.294 6.15564L153.299 6.13479Z" fill="black"/>
<path d="M153.623 5.90042L149.484 8.66296L150.006 7.31817C150.006 7.31817 153.409 -1.54279 161.344 2.27785C166.767 4.88402 167.795 11.8164 167.383 12.6087C166.771 13.2736 166.068 13.8491 165.295 14.3183C164.277 15.0389 163.025 15.3519 161.787 15.1955C160.549 15.0392 159.415 14.4249 158.608 13.4739C157.22 11.8216 154.798 8.40234 155.242 6.4425C154.834 5.70235 154.302 5.40004 153.618 5.92127L153.623 5.90042Z" fill="#5A2F32"/>
<path d="M155.021 6.35942C155.733 5.8414 156.101 5.13415 155.842 4.77973C155.584 4.4253 154.797 4.55792 154.085 5.07594C153.373 5.59396 153.005 6.30123 153.263 6.65566C153.522 7.01008 154.309 6.87744 155.021 6.35942Z" fill="#FDA57D"/>
<path opacity="0.05" d="M138.345 28.5165L140.239 26.8955L140.26 29.4548L139.848 28.4696L138.345 28.5165Z" fill="black"/>
<path opacity="0.05" d="M140.944 30.0596L140.986 30.4557L149.698 31.1333L149.75 30.7632L140.944 30.0596Z" fill="black"/>
<path d="M127.403 18.5559L128.259 34.6099L131.255 46.1396C131.255 46.1396 133.615 52.7645 135.285 53.0251C136.955 53.2857 136.961 47.8857 135.807 46.2803C134.653 44.6749 135.196 33.9896 135.196 33.9896L137.086 20.3594L127.403 18.5559Z" fill="#FDA57D"/>
<path d="M198.472 141.134H197.564V142.041H198.472V141.134Z" fill="#CCCCCC"/>
<path d="M196.974 142.5H199.219C199.38 142.5 199.54 142.532 199.688 142.593C199.837 142.655 199.973 142.745 200.086 142.859C200.2 142.973 200.291 143.108 200.352 143.256C200.414 143.405 200.446 143.564 200.446 143.725V151.278H195.748V143.725C195.748 143.564 195.78 143.405 195.841 143.256C195.903 143.108 195.993 142.973 196.107 142.859C196.221 142.745 196.356 142.655 196.505 142.593C196.654 142.532 196.813 142.5 196.974 142.5Z" fill="#535461"/>
<path d="M199.386 141.895H196.656V142.5H199.386V141.895Z" fill="#F7931A"/>
<path d="M200.446 145.977H195.748V147.79H200.446V145.977Z" fill="#F7931A"/>
<path d="M198.478 141.286V141.739C198.311 141.739 198.175 141.635 198.175 141.51C198.175 141.385 198.311 141.286 198.478 141.286Z" fill="#E6E6E6"/>
<path opacity="0.05" d="M128.363 10.7478C128.363 10.7478 126.369 16.1217 127.215 17.9565L128.363 10.7478Z" fill="black"/>
<path opacity="0.05" d="M127.444 18.2795L127.439 19.2751L137.007 20.8805L137.122 20.083L127.444 18.2795Z" fill="black"/>
<path d="M129.606 10.0911L127.403 18.5559L137.081 20.3594L139.638 9.67407L129.606 10.0911Z" fill="#F55F44"/>
<g opacity="0.5">
<path opacity="0.5" d="M129.277 39.4104L131.182 46.6139C131.182 46.6139 133.641 53.3899 135.358 53.6453C137.076 53.9007 137.102 48.3965 135.88 46.7598C135.238 45.8998 135.102 42.47 135.113 39.4104H129.277Z" fill="url(#paint2_linear_2016_23)"/>
</g>
<path d="M129.429 39.4104L131.261 46.4627C131.261 46.4627 133.62 53.0876 135.291 53.3482C136.961 53.6088 136.966 48.2088 135.813 46.6034C135.197 45.759 135.066 42.4023 135.077 39.4104H129.429Z" fill="#FDA57D"/>
<g opacity="0.5">
<path opacity="0.5" d="M148.805 39.1133H141.183L141.288 41.021L144.462 52.9155C144.462 52.9155 146.962 59.7333 148.726 60.0043C150.491 60.2754 150.496 54.7138 149.248 53.0667C148.001 51.4196 148.627 40.4059 148.627 40.4059L148.805 39.1133Z" fill="url(#paint3_linear_2016_23)"/>
</g>
<path d="M148.633 39.1133H141.429L141.528 40.9689L144.525 52.5246C144.525 52.5246 146.884 59.1495 148.555 59.4101C150.225 59.6707 150.23 54.2707 149.076 52.6653C147.923 51.0599 148.476 40.3486 148.476 40.3486L148.633 39.1133Z" fill="#FDA57D"/>
<path opacity="0.2" d="M198.358 141.254L211.408 138.648L211.93 144.903L198.358 141.776V141.254Z" fill="#535461"/>
<g opacity="0.5">
<path opacity="0.5" d="M178.668 143.183L179.029 143.339L190.512 148.275L205.144 130.944C205.144 130.944 207.362 128.468 204.721 126.774C202.08 125.08 200.42 129.464 200.42 129.464L189.176 141.525L179.624 136.756L179.775 135.755L171.068 130.731C170.899 130.414 170.715 130.106 170.515 129.808L170.437 129.526L170.003 129.146C169.92 129.057 169.836 128.974 169.753 128.901L171.194 127.337C172.265 127.712 173.407 127.848 174.537 127.734C175.667 127.62 176.758 127.259 177.733 126.677C178.708 126.095 179.544 125.307 180.18 124.367C180.816 123.427 181.237 122.359 181.414 121.239C182.088 121.367 182.781 121.367 183.455 121.239C184.342 121.053 185.17 120.655 185.87 120.081C186.569 119.506 187.12 118.772 187.475 117.939C187.445 117.996 187.402 118.044 187.351 118.081C187.299 118.118 187.24 118.143 187.177 118.153C187.289 117.958 187.388 117.756 187.475 117.549C187.177 118.268 184.395 117.277 183.977 117.027C182.703 116.35 182.046 115.349 181.367 114.119C180.067 111.69 177.666 110.793 174.962 110.58C172.896 110.356 170.807 110.619 168.86 111.346C167.891 111.716 167.008 112.283 166.269 113.01C165.53 113.738 164.949 114.61 164.564 115.573C164.331 116.234 164.225 116.932 164.251 117.632C164.207 118.381 164.331 119.131 164.615 119.827C164.898 120.522 165.334 121.145 165.89 121.651C165.985 121.732 166.084 121.809 166.188 121.88C166.245 122.104 166.308 122.323 166.386 122.542L166.005 122.954L163.531 125.633L163.405 125.596L137.342 129.49V129.542C136.476 128.969 132.55 126.978 122.752 129.683C119.052 130.725 112.887 130.595 106.268 129.985C101.643 124.241 98.6572 106.352 98.6572 106.352L97.4879 101.291L82.3136 104.794C82.3136 104.794 89.3135 106.358 90.4828 108.297C92.2628 108.891 93.3642 122.167 93.787 128.432C84.6991 127.03 77.2554 125.424 77.2554 125.424L71.811 123.48L67.9222 137.105C67.9222 137.105 72.2025 132.414 76.0914 132.044C76.0914 132.044 95.5409 141.385 109.937 139.44C115.544 138.685 120.962 141.051 125.498 141.775C129.469 142.436 133.48 142.826 137.504 142.943L137.551 147.222C137.551 147.222 153.571 146.534 164.094 143.198C164.893 145.356 165.535 146.915 165.76 147.029L167.67 146.096L178.402 159.289L199.402 150.72C199.402 150.72 202.534 149.552 200.968 146.826C199.402 144.1 195.91 147.217 195.91 147.217L180.349 152.664L173.783 143.574L173.527 143.219L174.905 142.547C174.905 142.547 174.863 142.344 174.78 141.994L178.402 144.882L178.668 143.183Z" fill="url(#paint4_linear_2016_23)"/>
</g>
<path d="M165.973 132.044L161.166 127.593L169.126 118.977L173.934 123.423L165.973 132.044Z" fill="#FDA57D"/>
<path opacity="0.05" d="M168.745 119.352L165.232 123.157C165.611 124.226 166.226 125.197 167.031 125.997C167.836 126.797 168.811 127.407 169.883 127.78L173.537 123.803L168.745 119.352Z" fill="black"/>
<path d="M169.779 139.498L189.056 147.78L203.301 130.924C203.301 130.924 205.457 128.515 202.889 126.868C200.321 125.221 198.713 129.475 198.713 129.475L187.751 141.192L173.683 134.176L169.779 139.498Z" fill="#FDA57D"/>
<path d="M168.766 129.912L178.606 135.588L177.28 144.486L168.009 137.105L168.766 129.912Z" fill="#14F195"/>
<path d="M172.738 127.833C176.918 127.833 180.307 124.442 180.307 120.259C180.307 116.076 176.918 112.686 172.738 112.686C168.558 112.686 165.169 116.076 165.169 120.259C165.169 124.442 168.558 127.833 172.738 127.833Z" fill="#FDA57D"/>
<path d="M166.516 126.884L162.731 125.748L137.363 129.537L137.55 146.738C137.55 146.738 168.39 145.414 171.793 137.465L169.523 129.537L166.516 126.884Z" fill="#14F195"/>
<path opacity="0.05" d="M168.307 137.335L177.28 144.486L177.661 141.458L168.766 132.941L168.307 137.335Z" fill="black"/>
<path d="M137.551 129.719C137.551 129.719 134.147 126.691 123.175 129.719C112.203 132.748 78.9046 125.55 78.9046 125.55L77.7771 131.992C77.7771 131.992 96.6942 141.077 110.694 139.185C116.144 138.45 121.416 140.749 125.832 141.458C129.708 142.097 133.623 142.468 137.551 142.568V129.719Z" fill="#4D8AF0"/>
<path d="M78.9047 125.555L73.6012 123.663L69.8168 136.912C69.8168 136.912 73.9927 132.367 77.7615 131.992L78.9047 125.555Z" fill="#535461"/>
<path d="M91.7662 108.901L99.7005 107.009C99.7005 107.009 103.485 129.725 109.159 131.617H95.1748C95.1748 131.617 94.0368 109.657 91.7662 108.901Z" fill="#4D8AF0"/>
<path d="M99.7006 107.009L98.5679 102.089L83.8111 105.498C83.8111 105.498 90.597 107.015 91.7559 108.907L99.7006 107.009Z" fill="#535461"/>
<path opacity="0.05" d="M173.945 111.502C171.935 111.285 169.903 111.54 168.01 112.248C167.067 112.608 166.209 113.159 165.49 113.867C164.772 114.575 164.207 115.424 163.834 116.36C163.155 118.257 163.593 120.587 165.128 121.89C165.492 122.234 165.961 122.446 166.459 122.495C167.263 122.526 167.936 121.937 168.547 121.426C169.707 120.471 170.984 119.667 172.347 119.034C173.506 118.513 174.921 118.096 176.001 118.758C176.49 119.12 176.934 119.54 177.322 120.009C177.947 120.629 178.716 121.087 179.561 121.341C180.405 121.594 181.299 121.636 182.164 121.463C183.029 121.29 183.837 120.907 184.519 120.348C185.2 119.789 185.733 119.071 186.071 118.257C185.778 118.961 183.074 117.992 182.667 117.778C181.425 117.121 180.788 116.146 180.151 114.953C178.909 112.581 176.57 111.711 173.945 111.502Z" fill="black"/>
<path d="M173.945 111.127C171.935 110.91 169.903 111.165 168.01 111.872C167.067 112.233 166.209 112.784 165.49 113.492C164.772 114.2 164.207 115.048 163.834 115.985C163.155 117.882 163.593 120.212 165.128 121.515C165.492 121.858 165.961 122.071 166.459 122.12C167.263 122.151 167.936 121.562 168.547 121.051C169.707 120.095 170.984 119.291 172.347 118.659C173.506 118.138 174.921 117.721 176.001 118.382C176.49 118.745 176.934 119.165 177.322 119.633C177.947 120.254 178.716 120.712 179.561 120.965C180.405 121.219 181.299 121.261 182.164 121.088C183.029 120.915 183.837 120.532 184.519 119.973C185.2 119.414 185.733 118.696 186.071 117.882C185.778 118.586 183.074 117.616 182.667 117.403C181.425 116.746 180.788 115.771 180.151 114.577C178.909 112.206 176.57 111.33 173.945 111.127Z" fill="black"/>
<path d="M170.833 119.633C170.978 119.022 170.848 118.468 170.542 118.396C170.237 118.323 169.871 118.76 169.726 119.37C169.581 119.981 169.711 120.535 170.017 120.607C170.323 120.679 170.688 120.243 170.833 119.633Z" fill="#FDA57D"/>
<path opacity="0.05" d="M166.84 145.659L167.096 145.971L172.786 143.214L172.535 142.87L166.84 145.659Z" fill="black"/>
<path opacity="0.05" d="M178.46 136.563L177.531 142.782L177.875 142.98L178.606 136.631L178.46 136.563Z" fill="black"/>
<path d="M148.523 120.634H143.981V151.298H148.523V120.634Z" fill="#E0E0E0"/>
<path d="M139.942 36.2308L135.637 34.7866L125.858 63.8543L130.163 65.2984L139.942 36.2308Z" fill="#E0E0E0"/>
<path d="M147.009 124.043H145.495V49.9968L146.988 50.075L147.009 124.043Z" fill="#E0E0E0"/>
<path d="M164.036 142.213L177.279 158.492L197.71 150.152C197.71 150.152 200.738 149.016 199.224 146.368C197.71 143.72 194.307 146.748 194.307 146.748L179.169 152.049L169.961 139.305L164.036 142.213Z" fill="#FDA57D"/>
<path d="M158.55 128.776C158.55 128.776 164.224 146.19 164.981 146.566L173.855 142.213C173.855 142.213 171.334 130.47 168.526 128.661C165.717 126.852 158.931 127.259 158.55 128.776Z" fill="#14F195"/>
<path opacity="0.05" d="M160.169 133.66C160.169 133.66 159.871 140.321 161.766 141.478L160.169 133.66Z" fill="black"/>
<path d="M145.506 50.075L138.678 39.9995L139.393 37.8677L146.988 50.075H145.506Z" fill="#E0E0E0"/>
<path d="M180.206 123.016L179.219 122.361L177.564 124.849L178.551 125.504L180.206 123.016Z" fill="black"/>
<path d="M178.823 122.899L171.507 118.042L171.178 118.537L178.493 123.394L178.823 122.899Z" fill="black"/>
<g opacity="0.7">
<path opacity="0.7" d="M315.42 319.985H296.461V333.975H315.42V319.985Z" fill="url(#paint5_linear_2016_23)"/>
<g opacity="0.1">
<path opacity="0.1" d="M296.461 323.691C296.461 323.691 303.534 324.515 305.94 324.515C308.347 324.515 315.42 323.691 315.42 323.691V320.194H296.461V323.691Z" fill="url(#paint6_linear_2016_23)"/>
</g>
<path opacity="0.7" d="M315.42 323.483C315.42 323.483 308.347 324.306 305.94 324.306C303.534 324.306 296.461 323.483 296.461 323.483V309.696C296.461 307.186 297.46 304.778 299.237 303.003C301.015 301.228 303.426 300.23 305.94 300.23C308.454 300.23 310.865 301.228 312.643 303.003C314.421 304.778 315.42 307.186 315.42 309.696V323.483Z" fill="url(#paint7_linear_2016_23)"/>
<path opacity="0.7" d="M305.94 302.91C305.339 302.91 304.763 302.671 304.338 302.247C303.913 301.823 303.675 301.248 303.675 300.648V295.503H308.206V300.648C308.206 301.248 307.967 301.823 307.542 302.247C307.117 302.671 306.541 302.91 305.94 302.91Z" fill="url(#paint8_linear_2016_23)"/>
<path opacity="0.7" d="M303.262 329.039H296.461V375.132H303.262V329.039Z" fill="url(#paint9_linear_2016_23)"/>
<path opacity="0.7" d="M315.42 329.039H308.618V375.132H315.42V329.039Z" fill="url(#paint10_linear_2016_23)"/>
<g opacity="0.1">
<path opacity="0.1" d="M303.675 298.938C305.163 299.303 306.718 299.303 308.206 298.938V295.706H303.675V298.938Z" fill="url(#paint11_linear_2016_23)"/>
</g>
<path opacity="0.7" d="M305.941 297.145C311.404 297.145 315.832 292.723 315.832 287.268C315.832 281.812 311.404 277.39 305.941 277.39C300.478 277.39 296.049 281.812 296.049 287.268C296.049 292.723 300.478 297.145 305.941 297.145Z" fill="url(#paint12_linear_2016_23)"/>
<path opacity="0.7" d="M305.94 299.001C311.176 299.001 315.42 294.763 315.42 289.535C315.42 284.307 311.176 280.069 305.94 280.069C300.705 280.069 296.461 284.307 296.461 289.535C296.461 294.763 300.705 299.001 305.94 299.001Z" fill="url(#paint13_linear_2016_23)"/>
<g opacity="0.1">
<path opacity="0.1" d="M300.199 284.786C300.716 285.072 301.286 285.249 301.874 285.307C304.302 285.638 306.774 285.361 309.067 284.5C309.283 284.964 309.597 285.376 309.988 285.707C310.379 286.037 310.838 286.278 311.333 286.412C312.323 286.674 313.347 286.788 314.371 286.751C314.596 286.776 314.823 286.732 315.023 286.626C315.478 286.319 315.258 285.615 314.992 285.135L313.671 282.743C313.32 282.015 312.847 281.352 312.273 280.783C311.474 280.154 310.523 279.746 309.516 279.6C307.172 279.134 304.752 279.214 302.443 279.834C299.985 280.486 296.816 282.743 300.199 284.786Z" fill="url(#paint14_linear_2016_23)"/>
</g>
<path opacity="0.7" d="M300.199 284.583C300.716 284.869 301.286 285.046 301.874 285.104C304.302 285.435 306.774 285.157 309.067 284.296C309.283 284.761 309.597 285.173 309.988 285.503C310.379 285.834 310.838 286.075 311.333 286.209C312.323 286.471 313.347 286.585 314.371 286.548C314.596 286.573 314.823 286.529 315.023 286.423C315.478 286.116 315.258 285.412 314.992 284.932L313.671 282.54C313.32 281.812 312.847 281.149 312.273 280.58C311.474 279.951 310.523 279.543 309.516 279.397C307.172 278.931 304.752 279.011 302.443 279.631C299.985 280.283 296.816 282.535 300.199 284.583Z" fill="url(#paint15_linear_2016_23)"/>
<path opacity="0.7" d="M315.316 291.078C315.771 291.078 316.141 290.387 316.141 289.535C316.141 288.683 315.771 287.992 315.316 287.992C314.86 287.992 314.491 288.683 314.491 289.535C314.491 290.387 314.86 291.078 315.316 291.078Z" fill="url(#paint16_linear_2016_23)"/>
<path opacity="0.7" d="M296.566 291.078C297.021 291.078 297.39 290.387 297.39 289.535C297.39 288.683 297.021 287.992 296.566 287.992C296.11 287.992 295.741 288.683 295.741 289.535C295.741 290.387 296.11 291.078 296.566 291.078Z" fill="url(#paint17_linear_2016_23)"/>
<path opacity="0.7" d="M331.289 279.657C332.54 279.657 333.554 278.645 333.554 277.395C333.554 276.146 332.54 275.133 331.289 275.133C330.038 275.133 329.023 276.146 329.023 277.395C329.023 278.645 330.038 279.657 331.289 279.657Z" fill="url(#paint18_linear_2016_23)"/>
<path opacity="0.7" d="M308.79 313.908C308.79 314.642 308.711 315.278 308.553 315.814C308.395 316.351 308.18 316.795 307.907 317.146C307.635 317.498 307.315 317.76 306.948 317.934C306.585 318.104 306.197 318.188 305.782 318.188C305.368 318.188 304.979 318.104 304.616 317.934C304.253 317.76 303.935 317.498 303.663 317.146C303.39 316.795 303.175 316.351 303.018 315.814C302.864 315.278 302.787 314.642 302.787 313.908C302.787 313.174 302.864 312.539 303.018 312.002C303.175 311.465 303.39 311.021 303.663 310.67C303.935 310.319 304.253 310.058 304.616 309.889C304.979 309.715 305.368 309.628 305.782 309.628C306.197 309.628 306.585 309.715 306.948 309.889C307.315 310.058 307.635 310.319 307.907 310.67C308.18 311.021 308.395 311.465 308.553 312.002C308.711 312.539 308.79 313.174 308.79 313.908ZM308.198 313.908C308.198 313.229 308.132 312.649 308.002 312.168C307.872 311.686 307.696 311.294 307.475 310.99C307.258 310.682 307.002 310.457 306.706 310.315C306.414 310.173 306.106 310.102 305.782 310.102C305.459 310.102 305.151 310.173 304.859 310.315C304.567 310.457 304.31 310.682 304.089 310.99C303.868 311.294 303.692 311.686 303.562 312.168C303.432 312.649 303.367 313.229 303.367 313.908C303.367 314.591 303.432 315.173 303.562 315.655C303.692 316.132 303.868 316.525 304.089 316.833C304.31 317.137 304.567 317.36 304.859 317.502C305.151 317.64 305.459 317.709 305.782 317.709C306.106 317.709 306.414 317.64 306.706 317.502C307.002 317.36 307.258 317.137 307.475 316.833C307.696 316.525 307.872 316.132 308.002 315.655C308.132 315.173 308.198 314.591 308.198 313.908ZM308.79 327.908C308.79 328.642 308.711 329.278 308.553 329.814C308.395 330.351 308.18 330.795 307.907 331.146C307.635 331.498 307.315 331.76 306.948 331.934C306.585 332.104 306.197 332.188 305.782 332.188C305.368 332.188 304.979 332.104 304.616 331.934C304.253 331.76 303.935 331.498 303.663 331.146C303.39 330.795 303.175 330.351 303.018 329.814C302.864 329.278 302.787 328.642 302.787 327.908C302.787 327.174 302.864 326.539 303.018 326.002C303.175 325.465 303.39 325.021 303.663 324.67C303.935 324.319 304.253 324.058 304.616 323.889C304.979 323.715 305.368 323.628 305.782 323.628C306.197 323.628 306.585 323.715 306.948 323.889C307.315 324.058 307.635 324.319 307.907 324.67C308.18 325.021 308.395 325.465 308.553 326.002C308.711 326.539 308.79 327.174 308.79 327.908ZM308.198 327.908C308.198 327.229 308.132 326.649 308.002 326.168C307.872 325.686 307.696 325.294 307.475 324.99C307.258 324.682 307.002 324.457 306.706 324.315C306.414 324.173 306.106 324.102 305.782 324.102C305.459 324.102 305.151 324.173 304.859 324.315C304.567 324.457 304.31 324.682 304.089 324.99C303.868 325.294 303.692 325.686 303.562 326.168C303.432 326.649 303.367 327.229 303.367 327.908C303.367 328.591 303.432 329.173 303.562 329.655C303.692 330.132 303.868 330.525 304.089 330.833C304.31 331.137 304.567 331.36 304.859 331.502C305.151 331.64 305.459 331.709 305.782 331.709C306.106 331.709 306.414 331.64 306.706 331.502C307.002 331.36 307.258 331.137 307.475 330.833C307.696 330.525 307.872 330.132 308.002 329.655C308.132 329.173 308.198 328.591 308.198 327.908Z" fill="black"/>
<path opacity="0.7" d="M306.149 293.236C306.149 293.236 300.793 295.086 296.669 290.973C296.669 290.973 297.004 292.339 297.578 293.981C298.507 295.739 299.966 297.161 301.749 298.044C303.533 298.928 305.549 299.228 307.513 298.903C309.477 298.577 311.289 297.643 312.691 296.232C314.093 294.821 315.015 293.005 315.326 291.041C314.334 291.573 307.292 294.956 306.149 293.236ZM305.945 295.706C304.901 295.706 304.092 294.924 304.092 294.471C304.092 294.017 304.922 294.059 305.945 294.059C306.968 294.059 307.798 294.017 307.798 294.471C307.798 294.924 306.963 295.706 305.94 295.706H305.945Z" fill="url(#paint19_linear_2016_23)"/>
<path opacity="0.7" d="M310.978 301.685C310.978 301.685 322.013 295.503 328.815 277.395L332.114 279.454C332.114 279.454 326.654 302.529 312.951 307.851L310.978 301.685Z" fill="url(#paint20_linear_2016_23)"/>
<path opacity="0.7" d="M280.598 279.657C281.849 279.657 282.863 278.645 282.863 277.395C282.863 276.146 281.849 275.133 280.598 275.133C279.346 275.133 278.332 276.146 278.332 277.395C278.332 278.645 279.346 279.657 280.598 279.657Z" fill="url(#paint21_linear_2016_23)"/>
<path opacity="0.7" d="M300.904 301.685C300.904 301.685 289.869 295.503 283.067 277.395L279.789 279.449C279.789 279.449 285.249 302.524 298.951 307.846L300.904 301.685Z" fill="url(#paint22_linear_2016_23)"/>
<path opacity="0.7" d="M302.85 376.779H296.874V376.471C296.874 375.68 297.188 374.922 297.748 374.363C298.308 373.804 299.068 373.49 299.859 373.49C300.651 373.49 301.411 373.804 301.971 374.363C302.531 374.922 302.845 375.68 302.845 376.471L302.85 376.779Z" fill="url(#paint23_linear_2016_23)"/>
<path opacity="0.7" d="M315.008 376.779H309.021V376.471C309.021 375.68 309.335 374.922 309.895 374.363C310.455 373.804 311.215 373.49 312.006 373.49C312.798 373.49 313.558 373.804 314.118 374.363C314.678 374.922 314.992 375.68 314.992 376.471L315.008 376.779Z" fill="url(#paint24_linear_2016_23)"/>
</g>
<path d="M315.149 320.157H296.738V333.746H315.149V320.157Z" fill="#4D8AF0"/>
<path opacity="0.1" d="M296.738 323.754C296.738 323.754 303.607 324.551 305.941 324.551C308.274 324.551 315.143 323.754 315.143 323.754V320.36H296.738V323.754Z" fill="black"/>
<path d="M315.143 323.556C315.143 323.556 308.274 324.353 305.941 324.353C303.607 324.353 296.738 323.556 296.738 323.556V310.17C296.738 307.733 297.707 305.396 299.433 303.672C301.159 301.949 303.5 300.981 305.941 300.981C308.381 300.981 310.722 301.949 312.448 303.672C314.174 305.396 315.143 307.733 315.143 310.17V323.556Z" fill="#14F195"/>
<path d="M303.738 296.384H308.139V301.377C308.139 301.961 307.907 302.52 307.493 302.933C307.08 303.345 306.52 303.577 305.936 303.577C305.352 303.577 304.791 303.345 304.378 302.933C303.965 302.52 303.733 301.961 303.733 301.377V296.384H303.738Z" fill="#FDB797"/>
<path d="M303.341 328.95H296.738V373.704H303.341V328.95Z" fill="#4D8AF0"/>
<path d="M315.143 328.95H308.54V373.704H315.143V328.95Z" fill="#4D8AF0"/>
<path opacity="0.1" d="M303.743 299.714C305.188 300.069 306.698 300.069 308.143 299.714V296.587H303.743V299.714Z" fill="black"/>
<path d="M305.941 297.984C311.246 297.984 315.546 293.69 315.546 288.393C315.546 283.096 311.246 278.802 305.941 278.802C300.637 278.802 296.337 283.096 296.337 288.393C296.337 293.69 300.637 297.984 305.941 297.984Z" fill="#814E4D"/>
<path d="M305.941 299.777C311.023 299.777 315.143 295.663 315.143 290.588C315.143 285.512 311.023 281.398 305.941 281.398C300.858 281.398 296.738 285.512 296.738 290.588C296.738 295.663 300.858 299.777 305.941 299.777Z" fill="#FDB797"/>
<path opacity="0.1" d="M300.365 285.98C300.869 286.252 301.424 286.419 301.994 286.47C304.351 286.792 306.751 286.523 308.978 285.688C309.187 286.14 309.493 286.541 309.873 286.862C310.254 287.184 310.7 287.418 311.181 287.549C312.143 287.803 313.136 287.913 314.13 287.877C314.35 287.903 314.572 287.861 314.767 287.757C315.211 287.46 314.997 286.777 314.736 286.308L313.452 283.989C313.111 283.282 312.652 282.639 312.095 282.086C311.318 281.476 310.395 281.08 309.417 280.94C307.14 280.487 304.789 280.566 302.547 281.169C300.146 281.805 297.077 283.994 300.365 285.98Z" fill="black"/>
<path d="M300.365 285.782C300.869 286.054 301.424 286.221 301.994 286.272C304.351 286.594 306.751 286.325 308.978 285.49C309.187 285.942 309.493 286.343 309.873 286.664C310.254 286.986 310.7 287.22 311.181 287.351C312.143 287.605 313.136 287.715 314.13 287.679C314.35 287.705 314.572 287.663 314.767 287.559C315.211 287.262 314.997 286.579 314.736 286.11L313.452 283.791C313.111 283.084 312.652 282.441 312.095 281.888C311.318 281.278 310.395 280.882 309.417 280.742C307.14 280.289 304.789 280.368 302.547 280.971C300.146 281.607 297.077 283.796 300.365 285.782Z" fill="#814E4D"/>
<path d="M315.045 292.084C315.486 292.084 315.843 291.414 315.843 290.588C315.843 289.762 315.486 289.092 315.045 289.092C314.603 289.092 314.246 289.762 314.246 290.588C314.246 291.414 314.603 292.084 315.045 292.084Z" fill="#FDB797"/>
<path d="M296.837 292.084C297.278 292.084 297.636 291.414 297.636 290.588C297.636 289.762 297.278 289.092 296.837 289.092C296.396 289.092 296.038 289.762 296.038 290.588C296.038 291.414 296.396 292.084 296.837 292.084Z" fill="#FDB797"/>
<path d="M330.553 281.002C331.769 281.002 332.756 280.017 332.756 278.803C332.756 277.588 331.769 276.603 330.553 276.603C329.336 276.603 328.35 277.588 328.35 278.803C328.35 280.017 329.336 281.002 330.553 281.002Z" fill="#FDB797"/>
<path d="M306.144 294.184C306.144 294.184 300.924 295.982 296.942 291.984C296.942 291.984 297.265 293.308 297.824 294.909C298.726 296.614 300.144 297.992 301.874 298.849C303.605 299.705 305.562 299.996 307.468 299.68C309.373 299.364 311.131 298.457 312.492 297.088C313.853 295.719 314.747 293.957 315.05 292.052C314.094 292.573 307.256 295.852 306.144 294.184ZM305.946 296.582C304.949 296.582 304.145 295.826 304.145 295.383C304.145 294.94 304.949 294.981 305.946 294.981C306.943 294.981 307.747 294.94 307.747 295.383C307.747 295.826 306.933 296.582 305.941 296.582H305.946Z" fill="#814E4D"/>
<path d="M310.831 302.388C310.831 302.388 321.548 296.384 328.151 278.802L331.351 280.799C331.351 280.799 326.048 303.212 312.742 308.372L310.831 302.388Z" fill="#14F195"/>
<path d="M281.329 281.002C282.545 281.002 283.531 280.017 283.531 278.803C283.531 277.588 282.545 276.603 281.329 276.603C280.112 276.603 279.126 277.588 279.126 278.803C279.126 280.017 280.112 281.002 281.329 281.002Z" fill="#FDB797"/>
<path d="M301.05 302.388C301.05 302.388 290.333 296.384 283.73 278.802L280.53 280.799C280.53 280.799 285.834 303.212 299.139 308.372L301.05 302.388Z" fill="#14F195"/>
<path d="M300.037 372.109C300.807 372.109 301.545 372.414 302.089 372.957C302.633 373.501 302.939 374.238 302.939 375.007V375.288H297.14V374.991C297.144 374.226 297.451 373.494 297.993 372.954C298.536 372.414 299.271 372.11 300.037 372.109Z" fill="#333333"/>
<path d="M311.845 372.109C312.614 372.109 313.353 372.414 313.897 372.957C314.441 373.501 314.747 374.238 314.747 375.007V375.288H308.942V374.991C308.947 374.225 309.254 373.492 309.798 372.952C310.342 372.412 311.078 372.109 311.845 372.109Z" fill="#333333"/>
</g>
<defs>
<linearGradient id="paint0_linear_2016_23" x1="69.4933" y1="71.1066" x2="69.4933" y2="58.6648" gradientUnits="userSpaceOnUse">
<stop stop-color="#808080" stop-opacity="0.25"/>
<stop offset="0.54" stop-color="#808080" stop-opacity="0.12"/>
<stop offset="1" stop-color="#808080" stop-opacity="0.1"/>
</linearGradient>
<linearGradient id="paint1_linear_2016_23" x1="47816.8" y1="23793.6" x2="47816.8" y2="7803.69" gradientUnits="userSpaceOnUse">
<stop stop-color="#808080" stop-opacity="0.25"/>
<stop offset="0.54" stop-color="#808080" stop-opacity="0.12"/>
<stop offset="1" stop-color="#808080" stop-opacity="0.1"/>
</linearGradient>
<linearGradient id="paint2_linear_2016_23" x1="3959.32" y1="2723.03" x2="3959.32" y2="2333.9" gradientUnits="userSpaceOnUse">
<stop stop-color="#808080" stop-opacity="0.25"/>
<stop offset="0.54" stop-color="#808080" stop-opacity="0.12"/>
<stop offset="1" stop-color="#808080" stop-opacity="0.1"/>
</linearGradient>
<linearGradient id="paint3_linear_2016_23" x1="4952.32" y1="4231.98" x2="4952.32" y2="3394.08" gradientUnits="userSpaceOnUse">
<stop stop-color="#808080" stop-opacity="0.25"/>
<stop offset="0.54" stop-color="#808080" stop-opacity="0.12"/>
<stop offset="1" stop-color="#808080" stop-opacity="0.1"/>
</linearGradient>
<linearGradient id="paint4_linear_2016_23" x1="72072.6" y1="22782.4" x2="72072.6" y2="16329.6" gradientUnits="userSpaceOnUse">
<stop stop-color="#808080" stop-opacity="0.25"/>
<stop offset="0.54" stop-color="#808080" stop-opacity="0.12"/>
<stop offset="1" stop-color="#808080" stop-opacity="0.1"/>
</linearGradient>
<linearGradient id="paint5_linear_2016_23" x1="11064" y1="9096.07" x2="11752.5" y2="9096.07" gradientUnits="userSpaceOnUse">
<stop stop-color="#808080" stop-opacity="0.25"/>
<stop offset="0.54" stop-color="#808080" stop-opacity="0.12"/>
<stop offset="1" stop-color="#808080" stop-opacity="0.1"/>
</linearGradient>
<linearGradient id="paint6_linear_2016_23" x1="15974.3" y1="3361.84" x2="16662.9" y2="3361.84" gradientUnits="userSpaceOnUse">
<stop stop-color="#808080" stop-opacity="0.25"/>
<stop offset="0.54" stop-color="#808080" stop-opacity="0.12"/>
<stop offset="1" stop-color="#808080" stop-opacity="0.1"/>
</linearGradient>
<linearGradient id="paint7_linear_2016_23" x1="15974.3" y1="16782.1" x2="16662.9" y2="16782.1" gradientUnits="userSpaceOnUse">
<stop stop-color="#808080" stop-opacity="0.25"/>
<stop offset="0.54" stop-color="#808080" stop-opacity="0.12"/>
<stop offset="1" stop-color="#808080" stop-opacity="0.1"/>
</linearGradient>
<linearGradient id="paint8_linear_2016_23" x1="4113.11" y1="5180.36" x2="4152.44" y2="5180.36" gradientUnits="userSpaceOnUse">
<stop stop-color="#808080" stop-opacity="0.25"/>
<stop offset="0.54" stop-color="#808080" stop-opacity="0.12"/>
<stop offset="1" stop-color="#808080" stop-opacity="0.1"/>
</linearGradient>
<linearGradient id="paint9_linear_2016_23" x1="4159.38" y1="31463.7" x2="4248.01" y2="31463.7" gradientUnits="userSpaceOnUse">
<stop stop-color="#808080" stop-opacity="0.25"/>
<stop offset="0.54" stop-color="#808080" stop-opacity="0.12"/>
<stop offset="1" stop-color="#808080" stop-opacity="0.1"/>
</linearGradient>
<linearGradient id="paint10_linear_2016_23" x1="4329.93" y1="31463.7" x2="4418.56" y2="31463.7" gradientUnits="userSpaceOnUse">
<stop stop-color="#808080" stop-opacity="0.25"/>
<stop offset="0.54" stop-color="#808080" stop-opacity="0.12"/>
<stop offset="1" stop-color="#808080" stop-opacity="0.1"/>
</linearGradient>
<linearGradient id="paint11_linear_2016_23" x1="4113.11" y1="2596.07" x2="4152.44" y2="2596.07" gradientUnits="userSpaceOnUse">
<stop stop-color="#808080" stop-opacity="0.25"/>
<stop offset="0.54" stop-color="#808080" stop-opacity="0.12"/>
<stop offset="1" stop-color="#808080" stop-opacity="0.1"/>
</linearGradient>
<linearGradient id="paint12_linear_2016_23" x1="11516.3" y1="11164.8" x2="12266.1" y2="11164.8" gradientUnits="userSpaceOnUse">
<stop stop-color="#808080" stop-opacity="0.25"/>
<stop offset="0.54" stop-color="#808080" stop-opacity="0.12"/>
<stop offset="1" stop-color="#808080" stop-opacity="0.1"/>
</linearGradient>
<linearGradient id="paint13_linear_2016_23" x1="11064" y1="10796" x2="11752.5" y2="10796" gradientUnits="userSpaceOnUse">
<stop stop-color="#808080" stop-opacity="0.25"/>
<stop offset="0.54" stop-color="#808080" stop-opacity="0.12"/>
<stop offset="1" stop-color="#808080" stop-opacity="0.1"/>
</linearGradient>
<linearGradient id="paint14_linear_2016_23" x1="14065" y1="4965.52" x2="14590.5" y2="4965.52" gradientUnits="userSpaceOnUse">
<stop stop-color="#808080" stop-opacity="0.25"/>
<stop offset="0.54" stop-color="#808080" stop-opacity="0.12"/>
<stop offset="1" stop-color="#808080" stop-opacity="0.1"/>
</linearGradient>
<linearGradient id="paint15_linear_2016_23" x1="14065" y1="4962.35" x2="14590.5" y2="4962.35" gradientUnits="userSpaceOnUse">
<stop stop-color="#808080" stop-opacity="0.25"/>
<stop offset="0.54" stop-color="#808080" stop-opacity="0.12"/>
<stop offset="1" stop-color="#808080" stop-opacity="0.1"/>
</linearGradient>
<linearGradient id="paint16_linear_2016_23" x1="1308.27" y1="2002.05" x2="1313.48" y2="2002.05" gradientUnits="userSpaceOnUse">
<stop stop-color="#808080" stop-opacity="0.25"/>
<stop offset="0.54" stop-color="#808080" stop-opacity="0.12"/>
<stop offset="1" stop-color="#808080" stop-opacity="0.1"/>
</linearGradient>
<linearGradient id="paint17_linear_2016_23" x1="1230.27" y1="2002.05" x2="1235.48" y2="2002.05" gradientUnits="userSpaceOnUse">
<stop stop-color="#808080" stop-opacity="0.25"/>
<stop offset="0.54" stop-color="#808080" stop-opacity="0.12"/>
<stop offset="1" stop-color="#808080" stop-opacity="0.1"/>
</linearGradient>
<linearGradient id="paint18_linear_2016_23" x1="3184.88" y1="2682.96" x2="3224.26" y2="2682.96" gradientUnits="userSpaceOnUse">
<stop stop-color="#808080" stop-opacity="0.25"/>
<stop offset="0.54" stop-color="#808080" stop-opacity="0.12"/>
<stop offset="1" stop-color="#808080" stop-opacity="0.1"/>
</linearGradient>
<linearGradient id="paint19_linear_2016_23" x1="15731.6" y1="5539.35" x2="16397.4" y2="5539.35" gradientUnits="userSpaceOnUse">
<stop stop-color="#808080" stop-opacity="0.25"/>
<stop offset="0.54" stop-color="#808080" stop-opacity="0.12"/>
<stop offset="1" stop-color="#808080" stop-opacity="0.1"/>
</linearGradient>
<linearGradient id="paint20_linear_2016_23" x1="18376.5" y1="19978.6" x2="19232.3" y2="19978.6" gradientUnits="userSpaceOnUse">
<stop stop-color="#808080" stop-opacity="0.25"/>
<stop offset="0.54" stop-color="#808080" stop-opacity="0.12"/>
<stop offset="1" stop-color="#808080" stop-opacity="0.1"/>
</linearGradient>
<linearGradient id="paint21_linear_2016_23" x1="2694.23" y1="2682.96" x2="2733.61" y2="2682.96" gradientUnits="userSpaceOnUse">
<stop stop-color="#808080" stop-opacity="0.25"/>
<stop offset="0.54" stop-color="#808080" stop-opacity="0.12"/>
<stop offset="1" stop-color="#808080" stop-opacity="0.1"/>
</linearGradient>
<linearGradient id="paint22_linear_2016_23" x1="17065.3" y1="19975.2" x2="17920" y2="19975.2" gradientUnits="userSpaceOnUse">
<stop stop-color="#808080" stop-opacity="0.25"/>
<stop offset="0.54" stop-color="#808080" stop-opacity="0.12"/>
<stop offset="1" stop-color="#808080" stop-opacity="0.1"/>
</linearGradient>
<linearGradient id="paint23_linear_2016_23" x1="5244.08" y1="3021.7" x2="5312.52" y2="3021.7" gradientUnits="userSpaceOnUse">
<stop stop-color="#808080" stop-opacity="0.25"/>
<stop offset="0.54" stop-color="#808080" stop-opacity="0.12"/>
<stop offset="1" stop-color="#808080" stop-opacity="0.1"/>
</linearGradient>
<linearGradient id="paint24_linear_2016_23" x1="5404.26" y1="3021.7" x2="5472.81" y2="3021.7" gradientUnits="userSpaceOnUse">
<stop stop-color="#808080" stop-opacity="0.25"/>
<stop offset="0.54" stop-color="#808080" stop-opacity="0.12"/>
<stop offset="1" stop-color="#808080" stop-opacity="0.1"/>
</linearGradient>
<clipPath id="clip0_2016_23">
<rect width="356" height="380" fill="white"/>
</clipPath>
</defs>
</svg>
