<svg width="23" height="25" viewBox="0 0 23 25" fill="none" xmlns="http://www.w3.org/2000/svg">
<path d="M19.0875 0H3.915C2.21 0 0.8125 1.3975 0.8125 3.105V21.8975C0.8125 23.6025 2.21 25 3.915 25H19.0875C20.795 25 22.1925 23.6025 22.1925 21.8975V3.105C22.19 1.3975 20.795 0 19.0875 0ZM19.605 20.1925C19.605 21.33 18.6775 22.26 17.5375 22.26H5.4675C4.33 22.26 3.3975 21.33 3.3975 20.1925V4.8075C3.3975 3.67 4.3275 2.7375 5.4675 2.7375H17.5375C18.675 2.7375 19.605 3.67 19.605 4.8075V20.1925ZM16.63 11.12H6.3725C5.8025 11.12 5.3375 11.5875 5.3375 12.155V13.105C5.3375 13.6725 5.8025 14.1375 6.3725 14.1375H16.63C17.2 14.1375 17.665 13.6725 17.665 13.105V12.155C17.665 11.5875 17.2 11.12 16.63 11.12ZM16.63 6.465H6.3725C5.8025 6.465 5.3375 6.93 5.3375 7.5V8.4475C5.3375 9.0175 5.8025 9.4825 6.3725 9.4825H16.63C17.2 9.4825 17.665 9.0175 17.665 8.4475V7.5C17.665 6.9325 17.2 6.465 16.63 6.465ZM16.63 15.7775H6.3725C5.8025 15.7775 5.3375 16.2425 5.3375 16.81V17.7575C5.3375 18.3275 5.8025 18.7925 6.3725 18.7925H16.63C17.2 18.7925 17.665 18.3275 17.665 17.7575V16.81C17.665 16.2425 17.2 15.7775 16.63 15.7775Z" fill="#223268"/>
</svg>
