<svg width="186" height="40" viewBox="0 0 186 40" fill="none" xmlns="http://www.w3.org/2000/svg">
<path d="M33.0659 39.9999C44.0511 39.9999 52.9562 31.0873 52.9562 20.093C52.9562 9.09868 44.0511 0.186035 33.0659 0.186035C22.0806 0.186035 13.1755 9.09868 13.1755 20.093C13.1755 31.0873 22.0806 39.9999 33.0659 39.9999Z" fill="url(#paint0_linear_1439_848)"/>
<path d="M51.1127 11.4829C47.9433 9.73498 45.2588 8.82864 43.3831 8.27837C37.0116 6.4657 32.7747 7.21019 29.8317 3.97329C28.7967 2.84038 28.2793 1.57799 27.9881 0.671657C31.2871 -0.202306 34.8771 -0.267044 38.4023 0.736395C44.2239 2.35484 48.7195 6.40097 51.1127 11.4829Z" fill="white"/>
<path d="M39.3726 38.8023C35.7503 40 31.7399 40.1942 27.7941 39.0937C22.49 37.6371 18.2856 34.1413 15.7628 29.6743C18.9647 31.1633 21.7138 31.9078 23.5897 32.3285C30.0581 33.7204 34.2625 32.7169 37.3998 35.7273C38.467 36.7955 39.0493 37.9284 39.3726 38.8023Z" fill="white"/>
<path d="M64.082 34.8858C61.0095 36.4072 56.611 36.3747 50.9512 34.821C50.2396 34.6268 48.4932 34.1089 47.3935 33.7853C47.5552 33.6234 47.7169 33.4616 47.8463 33.2997C48.2667 32.8465 48.6548 32.3609 49.043 31.8755C49.5604 31.1634 50.0456 30.4188 50.4983 29.642C57.4842 31.9078 60.6538 31.1957 61.9475 30.5483C62.3356 30.3541 62.4649 29.8685 62.2708 29.4478C61.0095 26.7612 57.743 24.2687 52.8917 22.2295C51.2422 21.5498 49.4311 20.9023 47.4258 20.3197C45.0325 19.6076 42.3804 19.1868 39.5343 19.0249C29.7023 18.4423 24.2688 14.2343 21.4227 10.8033C20.0967 9.18478 19.2235 7.5987 18.6089 6.27157C19.7733 5.04155 21.0994 3.941 22.5224 3.03467C23.3956 5.68893 27.0179 13.4252 39.7607 14.1373C42.9626 14.3315 45.9704 14.8169 48.7195 15.6262C50.0132 16.0146 51.3716 16.4355 52.7299 16.9534C58.3575 19.0574 64.2437 22.3589 66.5724 27.3438C67.9631 30.1599 66.7987 33.5263 64.082 34.8858Z" fill="white"/>
<path d="M47.8462 33.2998C46.7143 34.5299 45.453 35.6304 44.0945 36.5368C42.5098 33.2028 38.273 27.5381 27.4707 26.9232C24.2689 26.729 21.2611 26.2434 18.5119 25.4342C16.9595 24.9811 15.2777 24.4308 13.6283 23.7834C8.29182 21.6794 2.89068 18.4749 0.626735 13.7167C-0.699293 10.9329 0.465024 7.56649 3.18176 6.207C6.25427 4.68566 10.6528 4.71803 16.3126 6.27173C16.9272 6.43359 17.5417 6.6278 18.1562 6.82201C17.0565 8.0844 16.0863 9.50864 15.3424 11.03C9.35911 9.31442 6.54534 9.96181 5.34869 10.5444C4.96059 10.7387 4.83122 11.2242 5.02527 11.645C6.18959 14.1051 9.06804 16.4356 13.3048 18.3777C15.2131 19.2517 17.4123 20.061 19.8703 20.7731C22.2636 21.4852 24.9157 21.9059 27.7618 22.0678C37.5938 22.6181 43.0273 26.826 45.8411 30.2895C46.6496 31.3254 47.3287 32.3288 47.8462 33.2998Z" fill="white"/>
<path d="M92.4705 28.2493C92.4705 29.3889 92.2466 30.4268 91.7989 31.3629C91.3716 32.2787 90.7814 33.0724 90.0284 33.744C89.2958 34.4156 88.4207 34.9345 87.4032 35.3008C86.406 35.6671 85.3274 35.8503 84.1674 35.8503C83.3534 35.8503 82.5393 35.6366 81.7253 35.2093C80.9113 34.7616 80.1277 34.0595 79.3747 33.1029L81.6337 28.6766C81.7761 28.9411 81.9898 29.2159 82.2747 29.5008C82.5597 29.7654 82.875 29.9995 83.221 30.2029C83.5874 30.4064 83.9435 30.5795 84.2895 30.7219C84.6558 30.844 84.9814 30.905 85.2663 30.905C85.5105 30.905 85.7649 30.8643 86.0295 30.7829C86.294 30.7016 86.5382 30.5795 86.7621 30.4166C86.986 30.2538 87.1589 30.0706 87.281 29.8671C87.4235 29.6433 87.4947 29.3889 87.4947 29.104C87.4947 28.6156 87.3319 28.1679 87.0063 27.7608C86.701 27.3335 86.3144 26.9366 85.8463 26.5703C85.3782 26.1837 84.8695 25.7969 84.32 25.4103C83.7705 25.0237 83.2618 24.6166 82.7937 24.1893C82.346 23.7619 81.9593 23.2837 81.6337 22.7545C81.3081 22.2254 81.1453 21.6353 81.1453 20.984C81.1453 19.9258 81.4607 18.9387 82.0916 18.0229C82.7224 17.1071 83.506 16.3237 84.4421 15.6724C85.3986 15.0008 86.4365 14.4717 87.5558 14.085C88.6751 13.6984 89.7334 13.505 90.7305 13.505C91.28 13.505 91.7989 13.5763 92.2874 13.7187C92.7758 13.8408 93.1929 14.0545 93.5389 14.3598C93.9053 14.6447 94.1902 15.011 94.3937 15.4587C94.6176 15.9064 94.7295 16.4661 94.7295 17.1377C94.7295 17.4226 94.6989 17.7075 94.6379 17.9924C94.5972 18.2774 94.5565 18.5826 94.5158 18.9082L90.0895 20.1903C90.1302 20.0275 90.1607 19.8647 90.181 19.7019C90.2218 19.539 90.2421 19.3763 90.2421 19.2135C90.2421 18.6029 90.1302 18.1654 89.9063 17.9008C89.7028 17.6159 89.4281 17.4735 89.0821 17.4735C88.9193 17.4735 88.7158 17.5345 88.4716 17.6566C88.2477 17.7787 88.0137 17.9416 87.7695 18.145C87.5456 18.3282 87.3523 18.5521 87.1895 18.8166C87.0266 19.0811 86.9453 19.3661 86.9453 19.6714C86.9453 20.1598 87.0776 20.5668 87.3421 20.8924C87.627 21.218 87.9729 21.5233 88.38 21.8082C88.787 22.0931 89.2245 22.3882 89.6926 22.6935C90.1811 22.9784 90.6287 23.3548 91.0358 23.8229C91.4428 24.291 91.7786 24.8811 92.0432 25.5935C92.3281 26.2854 92.4705 27.1706 92.4705 28.2493ZM109.159 19.2745C109.159 20.9433 108.976 22.5205 108.609 24.0061C108.263 25.4714 107.796 26.8247 107.205 28.0661C106.615 29.2871 105.923 30.3861 105.129 31.3629C104.356 32.3195 103.542 33.1437 102.687 33.8356C101.833 34.5071 100.968 35.0261 100.093 35.3924C99.2175 35.7384 98.383 35.9114 97.5894 35.9114C96.9178 35.9114 96.3073 35.7893 95.7578 35.545C95.2083 35.2805 94.7301 34.904 94.3231 34.4156C93.9161 33.9068 93.5904 33.2658 93.3462 32.4924C93.1224 31.6987 93.0104 30.7524 93.0104 29.6535C93.0104 28.5138 93.1529 27.3131 93.4378 26.0514C93.7227 24.7896 94.1094 23.538 94.5978 22.2966C95.0862 21.0553 95.6866 19.8748 96.3988 18.7556C97.1112 17.6363 97.8946 16.6493 98.7494 15.7945C99.6041 14.9195 100.52 14.2275 101.497 13.7187C102.474 13.21 103.491 12.9556 104.549 12.9556C105.465 12.9556 106.218 13.1489 106.808 13.5356C107.419 13.9019 107.887 14.3903 108.213 15.0008C108.559 15.591 108.803 16.2626 108.945 17.0156C109.087 17.7685 109.159 18.5216 109.159 19.2745ZM97.5588 28.8598C97.5588 29.0837 97.5996 29.3177 97.6809 29.5619C97.7624 29.8061 97.8743 30.0198 98.0167 30.2029C98.1593 30.3861 98.3322 30.5489 98.5357 30.6914C98.7596 30.8135 98.9936 30.8745 99.2378 30.8745C100.154 30.8745 100.968 30.559 101.68 29.9282C102.392 29.2974 102.982 28.524 103.45 27.6082C103.919 26.6924 104.275 25.7156 104.519 24.6777C104.783 23.6398 104.916 22.6935 104.916 21.8387C104.916 21.5945 104.895 21.33 104.855 21.045C104.834 20.7601 104.773 20.4956 104.671 20.2514C104.59 20.0071 104.448 19.8037 104.244 19.6408C104.061 19.4577 103.807 19.3661 103.481 19.3661C102.83 19.3661 102.229 19.5289 101.68 19.8545C101.13 20.1801 100.632 20.6177 100.184 21.1671C99.7567 21.6963 99.3803 22.3068 99.0546 22.9987C98.729 23.6703 98.4441 24.3622 98.1999 25.0745C97.9761 25.7664 97.8133 26.4482 97.7115 27.1198C97.6098 27.7914 97.5588 28.3714 97.5588 28.8598ZM115.544 34.8124C114.913 34.8124 114.241 34.8327 113.529 34.8735C112.837 34.9142 112.135 34.9753 111.423 35.0566C110.711 35.138 110.008 35.25 109.317 35.3924C108.645 35.5145 108.035 35.6671 107.485 35.8503C107.607 34.9345 107.749 33.9169 107.913 32.7977C108.075 31.6784 108.258 30.5184 108.462 29.3177C108.685 28.1169 108.899 26.9061 109.103 25.685C109.326 24.464 109.551 23.2938 109.775 22.1745C110.283 19.5085 110.822 16.7917 111.393 14.024L116.735 13.3219C116.185 15.6826 115.656 17.9822 115.147 20.2208C114.923 21.1774 114.699 22.1745 114.476 23.2124C114.252 24.23 114.038 25.2271 113.835 26.204C113.631 27.1808 113.447 28.1271 113.285 29.0429C113.122 29.9587 112.989 30.7727 112.888 31.485C113.397 31.4443 113.936 31.424 114.506 31.424C115.096 31.4037 115.615 31.3935 116.063 31.3935C116.083 31.7801 116.114 32.1668 116.155 32.5535C116.195 32.9198 116.236 33.2556 116.277 33.5608C116.338 33.8661 116.378 34.1408 116.399 34.385C116.439 34.6089 116.469 34.7616 116.491 34.8429C116.327 34.8429 116.164 34.8429 116.002 34.8429C115.859 34.8226 115.706 34.8124 115.544 34.8124ZM127.564 35.1787C127.055 35.2601 126.496 35.3517 125.885 35.4535C125.275 35.5553 124.725 35.6468 124.237 35.7282C124.318 35.0566 124.399 34.3953 124.481 33.744C124.542 33.1742 124.593 32.6043 124.634 32.0345C124.695 31.4647 124.745 30.9763 124.786 30.5693H122.131L120.909 34.965C120.461 35.0261 119.933 35.0974 119.322 35.1787C118.712 35.2398 118.141 35.3008 117.613 35.3619C116.961 35.4433 116.32 35.5247 115.689 35.6061C116.503 32.8995 117.307 30.2335 118.101 27.6082C118.426 26.5093 118.762 25.3595 119.108 24.1587C119.475 22.958 119.831 21.7675 120.177 20.5871C120.543 19.3864 120.888 18.2366 121.215 17.1377C121.54 16.0387 121.825 15.0314 122.069 14.1156C123.453 14.0138 124.857 13.8917 126.282 13.7493C127.726 13.6068 129.131 13.4135 130.495 13.1693C130.434 13.8205 130.362 14.6345 130.281 15.6114C130.22 16.5679 130.159 17.6159 130.098 18.7556C130.037 19.8953 129.976 21.0858 129.915 22.3271C129.854 23.5685 129.793 24.7896 129.732 25.9903C129.629 28.7987 129.518 31.7801 129.396 34.9345C128.785 35.0363 128.175 35.1177 127.564 35.1787ZM122.863 27.5166C122.944 27.5166 123.086 27.5166 123.291 27.5166C123.514 27.4963 123.738 27.4861 123.962 27.4861C124.206 27.4658 124.429 27.4556 124.634 27.4556C124.837 27.4353 124.979 27.4148 125.061 27.3945C125.061 27.2724 125.071 27.0689 125.092 26.784C125.132 26.4787 125.162 26.1429 125.183 25.7766C125.223 25.39 125.264 24.9727 125.305 24.525C125.345 24.0774 125.386 23.6398 125.427 23.2124C125.508 22.1745 125.611 21.0553 125.733 19.8545L125.916 17.1987L125.458 17.2293L124.756 19.8545L122.863 27.5166ZM129.659 35.8198C130.208 33.1131 130.737 30.4675 131.246 27.8829C131.429 26.784 131.633 25.6443 131.857 24.464C132.08 23.2633 132.284 22.0829 132.467 20.9229C132.671 19.7426 132.854 18.6131 133.017 17.5345C133.2 16.4356 133.342 15.4384 133.444 14.5429C134.604 14.1766 135.856 13.9121 137.199 13.7493C138.542 13.5661 139.875 13.4745 141.198 13.4745C141.992 13.4745 142.642 13.5661 143.152 13.7493C143.68 13.9324 144.087 14.1969 144.373 14.5429C144.678 14.8685 144.892 15.2553 145.014 15.7029C145.136 16.1506 145.197 16.6493 145.197 17.1987C145.197 18.0127 145.054 18.8166 144.769 19.6103C144.484 20.3837 144.098 21.1264 143.609 21.8387C143.141 22.5306 142.592 23.1717 141.961 23.7619C141.351 24.3317 140.688 24.7998 139.977 25.1661C140.343 25.9801 140.729 26.8756 141.137 27.8524C141.564 28.8089 141.961 29.7247 142.327 30.5998C142.734 31.6174 143.152 32.6348 143.579 33.6524L138.847 35.3008C138.44 33.9984 138.074 32.7774 137.748 31.6377C137.605 31.1696 137.463 30.6914 137.321 30.2029C137.178 29.6942 137.046 29.2159 136.924 28.7682C136.802 28.3205 136.7 27.9237 136.619 27.5777C136.537 27.2114 136.486 26.9163 136.466 26.6924L136.069 26.8145C135.947 27.4658 135.795 28.2289 135.612 29.104C135.448 29.979 135.296 30.8237 135.154 31.6377C134.971 32.5942 134.787 33.5608 134.604 34.5377L129.659 35.8198ZM136.833 22.5714C137.219 22.5306 137.687 22.3679 138.237 22.0829C138.806 21.798 139.345 21.4622 139.855 21.0756C140.363 20.6685 140.801 20.2514 141.167 19.824C141.534 19.3966 141.717 19.0201 141.717 18.6945C141.717 18.4706 141.645 18.2977 141.503 18.1756C141.36 18.0331 141.157 17.9314 140.893 17.8703C140.648 17.7889 140.374 17.738 140.068 17.7177C139.763 17.6974 139.447 17.6871 139.122 17.6871C138.898 17.6871 138.664 17.6974 138.42 17.7177C138.196 17.7177 137.993 17.7177 137.809 17.7177L136.833 22.5714ZM158.638 20.1903C158.638 21.2485 158.485 22.378 158.18 23.5787C157.875 24.759 157.447 25.9395 156.898 27.1198C156.348 28.2798 155.667 29.399 154.853 30.4777C154.059 31.5359 153.154 32.4721 152.136 33.2861C151.119 34.0798 149.999 34.7208 148.778 35.2093C147.578 35.6977 146.296 35.9419 144.932 35.9419C144.647 35.9419 144.362 35.9216 144.077 35.8808C143.793 35.8605 143.507 35.83 143.222 35.7893C143.772 32.9808 144.312 30.2437 144.84 27.5777C145.044 26.4584 145.258 25.2984 145.481 24.0977C145.705 22.8766 145.919 21.6759 146.122 20.4956C146.326 19.3153 146.519 18.1858 146.702 17.1071C146.906 16.0285 147.068 15.0517 147.191 14.1766C148.066 14.0138 148.952 13.8611 149.846 13.7187C150.742 13.5763 151.658 13.505 152.594 13.505C153.693 13.505 154.619 13.678 155.372 14.024C156.145 14.37 156.766 14.8482 157.234 15.4587C157.722 16.0693 158.079 16.7816 158.302 17.5956C158.526 18.4096 158.638 19.2745 158.638 20.1903ZM151.434 17.8093C151.211 19.01 150.976 20.1598 150.732 21.2587C150.487 22.3577 150.243 23.4668 149.999 24.5861C149.755 25.7054 149.511 26.8756 149.266 28.0966C149.022 29.3177 148.788 30.6506 148.564 32.0956C149.053 31.77 149.521 31.3324 149.968 30.7829C150.437 30.2131 150.875 29.5619 151.281 28.8293C151.688 28.0966 152.055 27.3233 152.38 26.5093C152.726 25.6953 153.021 24.9016 153.265 24.1282C153.509 23.3548 153.693 22.6324 153.815 21.9608C153.958 21.2893 154.028 20.7093 154.028 20.2208C154.028 19.4679 153.815 18.8777 153.387 18.4503C152.981 18.0229 152.329 17.8093 151.434 17.8093ZM156.819 35.8198L160.818 14.1156L170.464 13.2914C170.322 13.739 170.2 14.1969 170.098 14.665C169.996 15.0517 169.895 15.4587 169.793 15.8861C169.712 16.2931 169.64 16.6595 169.579 16.985C169.376 17.0054 169.08 17.0258 168.694 17.0461C168.327 17.0461 167.931 17.0563 167.503 17.0766C167.076 17.0766 166.638 17.0766 166.191 17.0766C165.763 17.0766 165.386 17.0766 165.061 17.0766L163.993 22.5408C164.623 22.5001 165.214 22.4696 165.763 22.4493C166.211 22.4289 166.668 22.4187 167.137 22.4187C167.605 22.4187 167.951 22.4085 168.175 22.3882C168.094 22.958 168.012 23.5177 167.931 24.0671C167.869 24.6166 167.788 25.1763 167.686 25.7461C167.483 25.7664 167.147 25.7868 166.679 25.8071C166.232 25.8071 165.774 25.8174 165.305 25.8377C164.776 25.858 164.196 25.8784 163.565 25.8987L162.527 31.5156L166.984 30.8135L166.679 34.2935L156.819 35.8198ZM179.983 34.385C179.942 34.4054 179.8 34.4461 179.556 34.5071C179.312 34.5682 179.006 34.6496 178.64 34.7514C178.274 34.8531 177.866 34.965 177.419 35.0871C176.992 35.2093 176.564 35.3314 176.137 35.4535C175.729 35.5756 175.343 35.6875 174.977 35.7893C174.611 35.9114 174.325 36.0131 174.122 36.0945C174.061 35.2805 174.011 34.4868 173.969 33.7135C173.928 33.0419 173.878 32.3703 173.817 31.6987C173.776 31.0271 173.745 30.4675 173.725 30.0198C173.542 30.4675 173.298 31.0271 172.993 31.6987C172.707 32.3703 172.423 33.0317 172.138 33.6829C171.792 34.4359 171.436 35.199 171.069 35.9724L165.88 35.5145C166.898 33.7033 167.915 31.9124 168.933 30.1419C169.951 28.3714 170.886 26.5195 171.741 24.5861C171.619 23.6703 171.497 22.8563 171.375 22.144C171.273 21.4317 171.151 20.7296 171.008 20.0377C170.866 19.3458 170.714 18.6538 170.551 17.9619C170.387 17.2496 170.225 16.4458 170.062 15.5503L174.946 13.5356C175.048 14.4921 175.16 15.5503 175.282 16.7103C175.424 17.8703 175.546 18.9387 175.648 19.9156C176.117 18.898 176.575 17.8805 177.022 16.8629C177.491 15.8454 177.968 14.838 178.457 13.8408L182.883 15.0314C182.354 15.9268 181.876 16.751 181.448 17.504C181.021 18.2569 180.614 19.01 180.227 19.7629C179.841 20.5159 179.454 21.2893 179.067 22.0829C178.681 22.8563 178.263 23.7211 177.816 24.6777C177.938 25.5731 178.08 26.4177 178.243 27.2114C178.406 28.005 178.579 28.7885 178.762 29.5619C178.965 30.3353 179.159 31.1187 179.342 31.9124C179.545 32.6858 179.759 33.51 179.983 34.385Z" fill="white"/>
<defs>
<linearGradient id="paint0_linear_1439_848" x1="13.1904" y1="20.102" x2="52.9713" y2="20.102" gradientUnits="userSpaceOnUse">
<stop stop-color="#9746FE"/>
<stop offset="0.071422" stop-color="#8C50F6"/>
<stop offset="1" stop-color="#03CE8E"/>
</linearGradient>
</defs>
</svg>
